<?xml version="1.0" standalone="no"?>
<!DOCTYPE svg PUBLIC "-//W3C//DTD SVG 20010904//EN"
 "http://www.w3.org/TR/2001/REC-SVG-20010904/DTD/svg10.dtd">
<svg version="1.0" xmlns="http://www.w3.org/2000/svg"
 width="699.000000pt" height="406.000000pt" viewBox="0 0 699.000000 406.000000"
 preserveAspectRatio="xMidYMid meet">

<g transform="translate(0.000000,406.000000) scale(0.100000,-0.100000)"
fill="#000000" stroke="none">
<path d="M10 3740 l0 -320 315 0 315 0 0 -980 0 -980 435 0 435 0 0 980 0 980
298 0 297 0 1 68 c4 184 126 435 262 539 l44 33 -1201 0 -1201 0 0 -320z"/>
<path d="M2485 4038 c-106 -75 -203 -205 -255 -341 -34 -87 -60 -192 -60 -244
l0 -33 295 0 295 0 0 -980 0 -980 435 0 435 0 0 980 0 980 200 0 200 0 0 33
c0 52 35 179 73 260 63 137 151 253 241 319 l39 28 -934 0 -934 -1 -30 -21z"/>
<path d="M4471 4034 c-137 -69 -275 -249 -342 -449 l-24 -70 -3 -1027 -3
-1028 431 0 430 0 0 505 0 505 493 -2 492 -3 3 -503 2 -502 425 0 425 0 0
1300 0 1300 -425 0 -425 0 0 -510 0 -510 -495 0 -495 0 0 510 0 510 -218 0
c-215 0 -219 0 -271 -26z"/>
<path d="M560 1175 l0 -85 3095 0 3095 0 0 85 0 85 -3095 0 -3095 0 0 -85z"/>
<path d="M4575 983 c-3 -21 -14 -78 -24 -128 -19 -90 -17 -104 16 -105 7 0 27
28 45 62 48 90 70 102 184 106 l94 4 0 -399 c0 -317 -3 -403 -13 -417 -9 -12
-31 -20 -65 -24 -53 -5 -76 -19 -67 -43 4 -12 75 -14 413 -13 l407 1 0 23 c0
21 -6 26 -44 32 -25 4 -49 12 -55 18 -7 7 0 42 23 113 50 155 41 147 171 147
157 0 152 3 196 -136 34 -112 35 -118 18 -131 -10 -7 -28 -13 -40 -13 -26 0
-46 -22 -39 -41 4 -12 98 -14 568 -13 l562 2 22 63 c12 35 26 88 31 117 8 47
7 54 -9 63 -22 11 -33 1 -82 -76 -41 -64 -82 -90 -152 -99 -76 -9 -182 3 -206
23 -11 9 -24 34 -29 56 -14 58 -13 674 1 713 8 24 20 34 47 42 21 5 43 10 50
10 6 0 12 11 12 25 l0 25 -224 0 c-195 0 -225 -2 -230 -16 -9 -24 0 -31 49
-38 77 -12 75 0 75 -429 l0 -378 -26 -26 c-22 -22 -32 -25 -67 -20 -27 4 -49
14 -62 30 -19 21 -156 397 -279 763 -24 70 -49 130 -55 132 -7 2 -27 -9 -44
-26 -18 -16 -46 -37 -63 -45 -22 -12 -33 -26 -38 -49 -7 -34 -205 -567 -260
-697 -40 -96 -63 -113 -149 -113 -90 1 -120 16 -129 67 -8 49 -10 737 -2 759
5 13 23 16 89 16 108 0 140 -19 174 -108 20 -52 29 -62 45 -60 19 3 22 12 27
94 4 51 10 110 14 133 6 36 5 41 -13 41 -11 0 -25 -7 -32 -15 -11 -13 -67 -15
-390 -15 -323 0 -379 2 -390 15 -24 28 -49 18 -55 -22z m1155 -378 c28 -85 49
-159 45 -165 -3 -6 -47 -10 -101 -10 -75 0 -96 3 -100 15 -5 13 92 315 101
315 2 0 27 -70 55 -155z"/>
<path d="M1956 994 c-275 -66 -437 -339 -371 -623 54 -226 242 -364 495 -364
274 0 465 141 516 381 48 230 -40 446 -227 555 -102 60 -283 82 -413 51z m232
-80 c66 -33 124 -111 155 -209 19 -59 22 -93 22 -220 0 -170 -13 -230 -67
-311 -47 -70 -104 -99 -193 -99 -82 1 -134 23 -183 80 -142 161 -157 529 -29
697 68 88 191 114 295 62z"/>
<path d="M2897 1000 c-133 -34 -213 -120 -224 -240 -12 -125 58 -225 215 -309
140 -75 201 -145 202 -229 1 -111 -112 -181 -224 -138 -54 21 -134 103 -170
174 -26 52 -57 69 -69 39 -9 -25 12 -168 30 -205 22 -44 77 -68 191 -82 300
-38 510 158 422 394 -28 73 -109 148 -228 210 -112 58 -150 88 -174 143 -47
107 35 197 163 180 55 -7 96 -42 139 -118 25 -44 42 -64 55 -64 17 0 20 8 23
58 2 32 -2 82 -8 111 l-11 53 -52 12 c-67 17 -231 23 -280 11z"/>
<path d="M454 975 c-9 -22 3 -33 46 -40 72 -12 70 -3 70 -432 0 -370 -1 -384
-20 -403 -11 -11 -33 -20 -49 -20 -32 0 -54 -20 -46 -41 4 -11 47 -14 228 -13
l222 2 0 23 c0 21 -6 25 -43 30 -74 10 -77 16 -80 212 -3 143 -1 175 11 185
11 9 69 12 213 10 l199 -3 0 -187 c0 -132 -4 -191 -12 -199 -7 -7 -29 -15 -50
-18 -31 -5 -39 -11 -41 -31 l-3 -25 218 1 218 2 0 23 c0 20 -7 25 -38 30 -74
12 -72 -3 -75 404 -1 200 1 379 6 397 7 27 16 36 53 48 49 17 60 26 52 47 -4
10 -50 13 -224 13 l-219 0 0 -24 c0 -20 6 -25 39 -31 75 -13 76 -13 79 -199
l3 -166 -213 2 -213 3 -3 136 c-2 90 2 149 10 175 12 35 18 40 56 48 35 7 42
13 42 32 l0 24 -215 0 c-179 0 -217 -2 -221 -15z"/>
<path d="M3368 983 c-39 -3 -58 -9 -62 -19 -9 -24 0 -32 44 -39 73 -12 70 7
70 -416 0 -232 -4 -388 -10 -399 -5 -10 -24 -21 -42 -25 -63 -13 -69 -16 -66
-37 3 -20 9 -21 230 -22 192 -1 229 1 233 14 8 19 -22 40 -56 40 -15 0 -37 9
-50 19 l-24 19 -3 381 c-2 261 0 387 8 401 8 16 21 20 56 20 89 0 153 -59 175
-159 25 -119 -13 -228 -95 -272 -28 -14 -46 -31 -46 -41 0 -44 196 -7 277 52
117 86 125 290 17 392 -41 38 -128 75 -204 87 -60 10 -320 12 -452 4z"/>
<path d="M4094 975 c-9 -23 4 -34 46 -41 77 -13 75 2 75 -429 0 -424 2 -410
-66 -421 -21 -4 -44 -13 -50 -20 -27 -33 -6 -37 224 -38 l228 -1 -3 24 c-2 20
-12 26 -48 35 -31 8 -48 19 -57 36 -17 33 -14 773 3 790 7 7 31 16 55 21 46
11 61 23 52 46 -8 20 -451 19 -459 -2z"/>
</g>
</svg>
